<?xml version="1.0" encoding="utf-8"?>
<!-- Generator: Adobe Illustrator 21.0.0, SVG Export Plug-In . SVG Version: 6.00 Build 0)  -->
<svg version="1.1" id="Слой_3" xmlns="http://www.w3.org/2000/svg" xmlns:xlink="http://www.w3.org/1999/xlink" x="0px" y="0px"
	 viewBox="0 0 512 512" style="enable-background:new 0 0 512 512;" xml:space="preserve">
<style type="text/css">
	.st0{fill:#DED1FF;}
	.st1{fill:#B07FFF;}
	.st2{fill:#6D75C0;}
</style>
<rect x="161" y="222" class="st0" width="73" height="82"/>
<rect x="281" y="225" class="st0" width="73" height="82"/>
<path class="st1" d="M412.2,332.2L412.2,332.2c0,19.8-16.2,36-36,36h-241c-19.8,0-36-16.2-36-36v0c0-19.8,16.2-36,36-36h241
	C396,296.2,412.2,312.4,412.2,332.2z"/>
<path class="st1" d="M256.2,352.7L256.2,352.7c19.8,0,36-16.2,36-36l0-89c0-19.8-16.2-36-36-36h0c-19.8,0-36,16.2-36,36v89
	C220.2,336.5,236.4,352.7,256.2,352.7z"/>
<path class="st2" d="M376.2,368.2L376.2,368.2c-19.8,0-36-16.2-36-36v-152c0-19.8,16.2-36,36-36h0c19.8,0,36,16.2,36,36v152
	C412.2,352,396,368.2,376.2,368.2z"/>
<path class="st2" d="M135.2,368.2L135.2,368.2c-19.8,0-36-16.2-36-36v-152c0-19.8,16.2-36,36-36h0c19.8,0,36,16.2,36,36v152
	C171.2,352,155,368.2,135.2,368.2z"/>
<path class="st2" d="M285.4,238.7L285.4,238.7c-7.1,18.5-28.1,27.7-46.6,20.6l-116.6-45.1c-18.5-7.1-27.7-28.1-20.6-46.6l0,0
	c7.1-18.5,28.1-27.7,46.6-20.6l116.6,45.1C283.3,199.3,292.6,220.3,285.4,238.7z"/>
<path class="st2" d="M226.5,239.9L226.5,239.9c7.4,18.4,28.5,27.3,46.8,20l116-46.7c18.4-7.4,27.3-28.5,20-46.8l0,0
	c-7.4-18.4-28.5-27.3-46.8-20l-116,46.7C228.1,200.5,219.1,221.6,226.5,239.9z"/>
</svg>
