<?xml version="1.0" standalone="no"?>
<!DOCTYPE svg PUBLIC "-//W3C//DTD SVG 20010904//EN"
 "http://www.w3.org/TR/2001/REC-SVG-20010904/DTD/svg10.dtd">
<svg version="1.0" xmlns="http://www.w3.org/2000/svg"
 width="700.000000pt" height="700.000000pt" viewBox="0 0 700.000000 700.000000"
 preserveAspectRatio="xMidYMid meet">
<metadata>
Created by potrace 1.11, written by Peter Selinger 2001-2013
</metadata>
<g transform="translate(0.000000,700.000000) scale(0.100000,-0.100000)"
fill="#000000" stroke="none">
<path d="M1744 5015 c-169 -37 -313 -168 -364 -332 -20 -64 -20 -92 -20 -1189
0 -1112 0 -1125 21 -1187 51 -154 176 -274 338 -323 36 -12 350 -14 1776 -14
1555 0 1737 2 1786 16 152 45 276 165 330 322 20 56 20 84 19 1187 0 766 -4
1143 -11 1170 -32 117 -142 256 -247 309 -113 57 -259 72 -369 38 -32 -10
-378 -148 -770 -305 -391 -158 -718 -287 -725 -287 -8 0 -63 20 -123 44 -61
24 -294 114 -520 201 -225 87 -517 200 -647 252 -299 118 -342 127 -474 98z
m902 -1321 c164 -64 314 -121 332 -127 l32 -10 0 -304 0 -303 -335 0 -335 0 0
430 c0 237 1 430 3 430 2 0 138 -52 303 -116z m2004 -314 l0 -430 -330 0 -330
0 0 300 c0 165 1 300 3 300 1 0 146 59 322 130 176 71 323 129 328 130 4 0 7
-193 7 -430z"/>
</g>
</svg>
