<svg width="0" height="0" class="hidden">
  <symbol xmlns="http://www.w3.org/2000/svg" viewBox="0 -70 512 511" id="friends">
    <path d="M511.473 261.55c-8.453-47.609-40.047-85.835-81.707-103.566 18.488-15.504 30.296-38.98 30.296-65.207 0-46.582-37.234-84.48-83.003-84.48-45.77 0-83.004 37.894-83.004 84.48 0 26.243 11.82 49.727 30.328 65.235a135.45 135.45 0 00-19.988 10.558c-16.106 10.328-29.856 23.93-40.454 39.86a170.6 170.6 0 00-34.609-17.7c26.277-18.996 43.457-50.23 43.457-85.476C272.79 47.492 226.652.5 169.941.5 113.231.5 67.094 47.492 67.094 105.254c0 35.246 17.18 66.48 43.457 85.476C54.629 211.652 11.738 261.406.613 324.047a39.59 39.59 0 008.653 32.41c7.48 8.926 18.394 14.043 29.945 14.043h261.46c11.552 0 22.466-5.117 29.946-14.043a39.577 39.577 0 008.653-32.41 179.173 179.173 0 00-5.532-22.555h144.516c9.945 0 19.344-4.406 25.781-12.086a34.019 34.019 0 007.438-27.855zM324.055 92.778c0-30.043 23.777-54.48 53.004-54.48 29.226 0 53.003 24.437 53.003 54.48 0 30.04-23.777 54.477-53.003 54.477-29.227 0-53.004-24.438-53.004-54.477zM97.094 105.254c0-41.219 32.68-74.754 72.847-74.754 40.168 0 72.852 33.535 72.852 74.754s-32.684 74.754-72.852 74.754c-40.168 0-72.847-33.535-72.847-74.754zm210.531 231.933c-1.04 1.239-3.32 3.313-6.953 3.313H39.21c-3.633 0-5.914-2.074-6.953-3.313-1.078-1.289-2.79-4.03-2.106-7.898 12.274-69.113 71.063-119.281 139.79-119.281 68.726 0 127.519 50.168 139.788 119.281.688 3.867-1.023 6.61-2.105 7.899zm173.418-67.05c-.426.508-1.352 1.355-2.785 1.355h-157.13a174.603 174.603 0 00-33.644-44.273c19.54-31.082 52.934-49.965 89.575-49.965 51.558 0 95.66 37.656 104.875 89.543a4.033 4.033 0 01-.891 3.34zm0 0"></path>
  </symbol>
  <symbol xmlns="http://www.w3.org/2000/svg" viewBox="0 0 512 512" id="messages">
    <path d="M256 0C114.516 0 0 114.496 0 256c0 44.902 11.71 88.758 33.95 127.438L.964 485.868a19.999 19.999 0 0025.168 25.167l102.43-32.984C167.243 500.289 211.097 512 256 512c141.484 0 256-114.496 256-256C512 114.516 397.504 0 256 0zm0 472c-40.559 0-80.094-11.316-114.332-32.727a20.013 20.013 0 00-16.734-2.078l-73.942 23.813 23.813-73.942a20.015 20.015 0 00-2.082-16.734C51.316 336.094 40 296.559 40 256c0-119.102 96.898-216 216-216s216 96.898 216 216-96.898 216-216 216zm25-216c0 13.805-11.191 25-25 25s-25-11.195-25-25c0-13.809 11.191-25 25-25s25 11.191 25 25zm100 0c0 13.805-11.191 25-25 25s-25-11.195-25-25c0-13.809 11.191-25 25-25s25 11.191 25 25zm-200 0c0 13.805-11.191 25-25 25-13.805 0-25-11.195-25-25 0-13.809 11.195-25 25-25 13.809 0 25 11.191 25 25zm0 0"></path>
  </symbol>
  <symbol xmlns="http://www.w3.org/2000/svg" viewBox="0 0 512 512" id="music">
    <path d="M506.617 3.489a14.997 14.997 0 00-12.285-3.25l-332 60A15.001 15.001 0 00150 75v279.98C134.065 340.7 113.031 332 90 332c-49.626 0-90 40.374-90 90s40.374 90 90 90 90-40.374 90-90V197.532l302-54.578v167.027C466.065 295.7 445.031 287 422 287c-49.626 0-90 40.374-90 90s40.374 90 90 90 90-40.374 90-90V15c0-4.445-1.971-8.661-5.383-11.511zM90 482c-33.084 0-60-26.916-60-60s26.916-60 60-60 60 26.916 60 60-26.916 60-60 60zm90-314.953V87.533l302-54.579v79.514zM422 437c-33.084 0-60-26.916-60-60s26.916-60 60-60 60 26.916 60 60-26.916 60-60 60z"></path>
  </symbol>
  <symbol xmlns="http://www.w3.org/2000/svg" viewBox="0 0 512 512" id="news">
    <path d="M497 121H383V32c0-8.284-6.716-15-15-15H15C6.716 17 0 23.716 0 32v388c0 41.355 33.645 75 75 75h362c41.355 0 75-33.645 75-75V136c0-8.284-6.716-15-15-15zM75 465c-24.813 0-45-20.187-45-45V47h323c0 396.466-.189 374.424.344 380.077A74.764 74.764 0 00368.035 465zm407-45c0 24.813-20.187 45-45 45h-9c-24.813 0-45-20.187-45-45V151h99z"></path>
    <path d="M304 89H80c-8.284 0-15 6.716-15 15s6.716 15 15 15h224c8.284 0 15-6.716 15-15s-6.716-15-15-15zm0 64H80c-8.284 0-15 6.716-15 15s6.716 15 15 15h224c8.284 0 15-6.716 15-15s-6.716-15-15-15zm0 240H80c-8.284 0-15 6.716-15 15s6.716 15 15 15h224c8.284 0 15-6.716 15-15s-6.716-15-15-15zm0-176H192c-8.284 0-15 6.716-15 15v112c0 8.284 6.716 15 15 15h112c8.284 0 15-6.716 15-15V232c0-8.284-6.716-15-15-15zm-15 112h-82v-82h82zM80 271h48c8.284 0 15-6.716 15-15s-6.716-15-15-15H80c-8.284 0-15 6.716-15 15s6.716 15 15 15zm0 64h48c8.284 0 15-6.716 15-15s-6.716-15-15-15H80c-8.284 0-15 6.716-15 15s6.716 15 15 15z"></path>
  </symbol>
  <symbol xmlns="http://www.w3.org/2000/svg" viewBox="0 0 512 512" id="settings">
    <path d="M272.066 512h-32.133c-25.989 0-47.134-21.144-47.134-47.133v-10.871a206.698 206.698 0 01-32.097-13.323l-7.704 7.704c-18.659 18.682-48.548 18.134-66.665-.007l-22.711-22.71c-18.149-18.129-18.671-48.008.006-66.665l7.698-7.698A206.714 206.714 0 0158.003 319.2h-10.87C21.145 319.2 0 298.056 0 272.067v-32.134C0 213.944 21.145 192.8 47.134 192.8h10.87a206.755 206.755 0 0113.323-32.097L63.623 153c-18.666-18.646-18.151-48.528.006-66.665l22.713-22.712c18.159-18.184 48.041-18.638 66.664.006l7.697 7.697A206.893 206.893 0 01192.8 58.003v-10.87C192.8 21.144 213.944 0 239.934 0h32.133C298.056 0 319.2 21.144 319.2 47.133v10.871a206.698 206.698 0 0132.097 13.323l7.704-7.704c18.659-18.682 48.548-18.134 66.665.007l22.711 22.71c18.149 18.129 18.671 48.008-.006 66.665l-7.698 7.698a206.714 206.714 0 0113.323 32.097h10.87c25.989 0 47.134 21.144 47.134 47.133v32.134c0 25.989-21.145 47.133-47.134 47.133h-10.87a206.755 206.755 0 01-13.323 32.097l7.704 7.704c18.666 18.646 18.151 48.528-.006 66.665l-22.713 22.712c-18.159 18.184-48.041 18.638-66.664-.006l-7.697-7.697a206.893 206.893 0 01-32.097 13.323v10.871c0 25.987-21.144 47.131-47.134 47.131zM165.717 409.17a176.812 176.812 0 0045.831 19.025 14.999 14.999 0 0111.252 14.524v22.148c0 9.447 7.687 17.133 17.134 17.133h32.133c9.447 0 17.134-7.686 17.134-17.133v-22.148a14.999 14.999 0 0111.252-14.524 176.812 176.812 0 0045.831-19.025 15 15 0 0118.243 2.305l15.688 15.689c6.764 6.772 17.626 6.615 24.224.007l22.727-22.726c6.582-6.574 6.802-17.438.006-24.225l-15.695-15.695a15 15 0 01-2.305-18.242 176.78 176.78 0 0019.024-45.831 15 15 0 0114.524-11.251h22.147c9.447 0 17.134-7.686 17.134-17.133v-32.134c0-9.447-7.687-17.133-17.134-17.133H442.72a15 15 0 01-14.524-11.251 176.815 176.815 0 00-19.024-45.831 15 15 0 012.305-18.242l15.689-15.689c6.782-6.774 6.605-17.634.006-24.225l-22.725-22.725c-6.587-6.596-17.451-6.789-24.225-.006l-15.694 15.695a15 15 0 01-18.243 2.305 176.812 176.812 0 00-45.831-19.025 14.999 14.999 0 01-11.252-14.524v-22.15c0-9.447-7.687-17.133-17.134-17.133h-32.133c-9.447 0-17.134 7.686-17.134 17.133v22.148a14.999 14.999 0 01-11.252 14.524 176.812 176.812 0 00-45.831 19.025 15.002 15.002 0 01-18.243-2.305l-15.688-15.689c-6.764-6.772-17.627-6.615-24.224-.007l-22.727 22.726c-6.582 6.574-6.802 17.437-.006 24.225l15.695 15.695a15 15 0 012.305 18.242 176.78 176.78 0 00-19.024 45.831 15 15 0 01-14.524 11.251H47.134C37.687 222.8 30 230.486 30 239.933v32.134c0 9.447 7.687 17.133 17.134 17.133h22.147a15 15 0 0114.524 11.251 176.815 176.815 0 0019.024 45.831 15 15 0 01-2.305 18.242l-15.689 15.689c-6.782 6.774-6.605 17.634-.006 24.225l22.725 22.725c6.587 6.596 17.451 6.789 24.225.006l15.694-15.695c3.568-3.567 10.991-6.594 18.244-2.304z"></path>
    <path d="M256 367.4c-61.427 0-111.4-49.974-111.4-111.4S194.573 144.6 256 144.6 367.4 194.574 367.4 256 317.427 367.4 256 367.4zm0-192.8c-44.885 0-81.4 36.516-81.4 81.4s36.516 81.4 81.4 81.4 81.4-36.516 81.4-81.4-36.515-81.4-81.4-81.4z"></path>
  </symbol>
  <symbol xmlns="http://www.w3.org/2000/svg" viewBox="-42 0 512 512" id="my_profile">
    <path d="M210.352 246.633c33.882 0 63.218-12.153 87.195-36.13 23.969-23.972 36.125-53.304 36.125-87.19 0-33.876-12.152-63.211-36.129-87.192C273.566 12.152 244.23 0 210.352 0c-33.887 0-63.22 12.152-87.192 36.125s-36.129 53.309-36.129 87.188c0 33.886 12.156 63.222 36.13 87.195 23.98 23.969 53.316 36.125 87.19 36.125zM144.379 57.34c18.394-18.395 39.973-27.336 65.973-27.336 25.996 0 47.578 8.941 65.976 27.336 18.395 18.398 27.34 39.98 27.34 65.972 0 26-8.945 47.579-27.34 65.977-18.398 18.399-39.98 27.34-65.976 27.34-25.993 0-47.57-8.945-65.973-27.34-18.399-18.394-27.344-39.976-27.344-65.976 0-25.993 8.945-47.575 27.344-65.973zm281.75 336.363c-.692-9.976-2.09-20.86-4.149-32.351-2.078-11.579-4.753-22.524-7.957-32.528-3.312-10.34-7.808-20.55-13.375-30.336-5.77-10.156-12.55-19-20.16-26.277-7.957-7.613-17.699-13.734-28.965-18.2-11.226-4.44-23.668-6.69-36.976-6.69-5.227 0-10.281 2.144-20.043 8.5a2711.03 2711.03 0 01-20.879 13.46c-6.707 4.274-15.793 8.278-27.016 11.903-10.949 3.543-22.066 5.34-33.043 5.34-10.968 0-22.086-1.797-33.043-5.34-11.21-3.622-20.3-7.625-26.996-11.899a2853.13 2853.13 0 01-20.898-13.469c-9.754-6.355-14.809-8.5-20.035-8.5-13.313 0-25.75 2.254-36.973 6.7-11.258 4.457-21.004 10.578-28.969 18.199-7.609 7.281-14.39 16.12-20.156 26.273-5.558 9.785-10.058 19.992-13.371 30.34-3.2 10.004-5.875 20.945-7.953 32.524-2.063 11.476-3.457 22.363-4.149 32.363C.343 403.492 0 413.668 0 423.949c0 26.727 8.496 48.363 25.25 64.32C41.797 504.017 63.688 512 90.316 512h246.532c26.62 0 48.511-7.984 65.062-23.73 16.758-15.946 25.254-37.59 25.254-64.325-.004-10.316-.351-20.492-1.035-30.242zm-44.906 72.828c-10.934 10.406-25.45 15.465-44.38 15.465H90.317c-18.933 0-33.449-5.059-44.379-15.46-10.722-10.208-15.933-24.141-15.933-42.587 0-9.594.316-19.066.95-28.16.616-8.922 1.878-18.723 3.75-29.137 1.847-10.285 4.198-19.937 6.995-28.675 2.684-8.38 6.344-16.676 10.883-24.668 4.332-7.618 9.316-14.153 14.816-19.418 5.145-4.926 11.63-8.957 19.27-11.98 7.066-2.798 15.008-4.329 23.629-4.56 1.05.56 2.922 1.626 5.953 3.602 6.168 4.02 13.277 8.606 21.137 13.625 8.86 5.649 20.273 10.75 33.91 15.152 13.941 4.508 28.16 6.797 42.273 6.797 14.114 0 28.336-2.289 42.27-6.793 13.648-4.41 25.058-9.507 33.93-15.164 8.043-5.14 14.953-9.593 21.12-13.617 3.032-1.973 4.903-3.043 5.954-3.601 8.625.23 16.566 1.761 23.636 4.558 7.637 3.024 14.122 7.059 19.266 11.98 5.5 5.262 10.484 11.798 14.816 19.423 4.543 7.988 8.208 16.289 10.887 24.66 2.801 8.75 5.156 18.398 7 28.675 1.867 10.434 3.133 20.239 3.75 29.145v.008c.637 9.058.957 18.527.961 28.148-.004 18.45-5.215 32.38-15.937 42.582zm0 0"></path>
  </symbol>
  <symbol xmlns="http://www.w3.org/2000/svg" viewBox="0 -28 512.001 512" id="like">
    <path d="M256 455.516a30.022 30.022 0 01-19.793-7.438c-20.684-18.086-40.625-35.082-58.219-50.074l-.09-.078c-51.582-43.957-96.125-81.918-127.117-119.313C16.137 236.81 0 197.172 0 153.871c0-42.07 14.426-80.883 40.617-109.293C67.121 15.832 103.488 0 143.031 0c29.555 0 56.621 9.344 80.446 27.77C235.5 37.07 246.398 48.453 256 61.73c9.605-13.277 20.5-24.66 32.527-33.96C312.352 9.344 339.418 0 368.973 0c39.539 0 75.91 15.832 102.414 44.578C497.578 72.988 512 111.801 512 153.871c0 43.3-16.133 82.938-50.777 124.738-30.993 37.399-75.532 75.356-127.106 119.309-17.625 15.016-37.597 32.039-58.328 50.168a30.046 30.046 0 01-19.789 7.43zM143.031 29.992c-31.066 0-59.605 12.399-80.367 34.914-21.07 22.856-32.676 54.45-32.676 88.965 0 36.418 13.535 68.988 43.883 105.606 29.332 35.394 72.961 72.574 123.477 115.625l.093.078c17.66 15.05 37.68 32.113 58.516 50.332 20.961-18.254 41.012-35.344 58.707-50.418 50.512-43.051 94.137-80.223 123.469-115.617 30.344-36.618 43.879-69.188 43.879-105.606 0-34.516-11.606-66.11-32.676-88.965-20.758-22.515-49.3-34.914-80.363-34.914-22.758 0-43.653 7.235-62.102 21.5-16.441 12.719-27.894 28.797-34.61 40.047-3.452 5.785-9.53 9.238-16.261 9.238s-12.809-3.453-16.262-9.238c-6.71-11.25-18.164-27.328-34.61-40.047-18.448-14.265-39.343-21.5-62.097-21.5zm0 0"></path>
  </symbol>
  <symbol xmlns="http://www.w3.org/2000/svg" viewBox="0 -28 512 512" id="like_active">
    <path d="M471.383 44.578C444.879 15.832 408.512 0 368.973 0c-29.555 0-56.621 9.344-80.45 27.77C276.5 37.07 265.605 48.45 256 61.73c-9.602-13.277-20.5-24.66-32.527-33.96C199.648 9.344 172.582 0 143.027 0c-39.539 0-75.91 15.832-102.414 44.578C14.426 72.988 0 111.801 0 153.871c0 43.3 16.137 82.938 50.781 124.742 30.992 37.395 75.535 75.356 127.117 119.313 17.614 15.012 37.579 32.027 58.309 50.152A30.023 30.023 0 00256 455.516a30.03 30.03 0 0019.785-7.43c20.73-18.129 40.707-35.152 58.328-50.172 51.575-43.95 96.117-81.906 127.11-119.305C495.867 236.81 512 197.172 512 153.867c0-42.066-14.426-80.879-40.617-109.289zm0 0"></path>
  </symbol>
  <symbol xmlns="http://www.w3.org/2000/svg" viewBox="0 0 612 612" id="comment">
    <path d="M401.625 325.125h-191.25c-10.557 0-19.125 8.568-19.125 19.125s8.568 19.125 19.125 19.125h191.25c10.557 0 19.125-8.568 19.125-19.125s-8.568-19.125-19.125-19.125zm38.25-114.75h-267.75c-10.557 0-19.125 8.568-19.125 19.125s8.568 19.125 19.125 19.125h267.75c10.557 0 19.125-8.568 19.125-19.125s-8.568-19.125-19.125-19.125zM306 0C137.012 0 0 119.875 0 267.75c0 84.514 44.848 159.751 114.75 208.826V612l134.047-81.339c18.552 3.061 37.638 4.839 57.203 4.839 169.008 0 306-119.875 306-267.75S475.008 0 306 0zm0 497.25c-22.338 0-43.911-2.601-64.643-7.019l-90.041 54.123 1.205-88.701C83.5 414.133 38.25 345.513 38.25 267.75c0-126.741 119.875-229.5 267.75-229.5s267.75 102.759 267.75 229.5S453.875 497.25 306 497.25z"></path>
  </symbol>
  <symbol xmlns="http://www.w3.org/2000/svg" viewBox="0 0 420.8 420.8" id="fileImg">
    <path d="M406.8 96.4c-8.4-8.8-20-14-33.2-14h-66.4v-.8c0-10-4-19.6-10.8-26-6.8-6.8-16-10.8-26-10.8h-120c-10.4 0-19.6 4-26.4 10.8-6.8 6.8-10.8 16-10.8 26v.8h-66c-13.2 0-24.8 5.2-33.2 14-8.4 8.4-14 20.4-14 33.2v199.2C0 342 5.2 353.6 14 362c8.4 8.4 20.4 14 33.2 14h326.4c13.2 0 24.8-5.2 33.2-14 8.4-8.4 14-20.4 14-33.2V129.6c0-13.2-5.2-24.8-14-33.2zM400 328.8h-.4c0 7.2-2.8 13.6-7.6 18.4s-11.2 7.6-18.4 7.6H47.2c-7.2 0-13.6-2.8-18.4-7.6-4.8-4.8-7.6-11.2-7.6-18.4V129.6c0-7.2 2.8-13.6 7.6-18.4s11.2-7.6 18.4-7.6h77.2c6 0 10.8-4.8 10.8-10.8V81.2c0-4.4 1.6-8.4 4.4-11.2s6.8-4.4 11.2-4.4h119.6c4.4 0 8.4 1.6 11.2 4.4 2.8 2.8 4.4 6.8 4.4 11.2v11.6c0 6 4.8 10.8 10.8 10.8H374c7.2 0 13.6 2.8 18.4 7.6s7.6 11.2 7.6 18.4v199.2z"></path>
    <path d="M210.4 130.8c-27.2 0-52 11.2-69.6 28.8-18 18-28.8 42.4-28.8 69.6s11.2 52 28.8 69.6c18 18 42.4 28.8 69.6 28.8s52-11.2 69.6-28.8c18-18 28.8-42.4 28.8-69.6s-11.2-52-28.8-69.6c-17.6-17.6-42.4-28.8-69.6-28.8zM264.8 284c-14 13.6-33.2 22.4-54.4 22.4S170 297.6 156 284c-14-14-22.4-33.2-22.4-54.4 0-21.2 8.8-40.4 22.4-54.4 14-14 33.2-22.4 54.4-22.4s40.4 8.8 54.4 22.4c14 14 22.4 33.2 22.4 54.4.4 21.2-8.4 40.4-22.4 54.4z"></path>
    <circle cx="352.8" cy="150" r="19.6"></circle>
  </symbol>
  <symbol xmlns="http://www.w3.org/2000/svg" viewBox="0 0 511 512" id="exit">
    <path d="M361.5 392v40c0 44.113-35.887 80-80 80h-201c-44.113 0-80-35.887-80-80V80c0-44.113 35.887-80 80-80h201c44.113 0 80 35.887 80 80v40c0 11.047-8.953 20-20 20s-20-8.953-20-20V80c0-22.055-17.945-40-40-40h-201c-22.055 0-40 17.945-40 40v352c0 22.055 17.945 40 40 40h201c22.055 0 40-17.945 40-40v-40c0-11.047 8.953-20 20-20s20 8.953 20 20zm136.355-170.355l-44.785-44.786c-7.812-7.812-20.476-7.812-28.285 0-7.812 7.809-7.812 20.473 0 28.282L456.641 237H216.5c-11.047 0-20 8.953-20 20s8.953 20 20 20h240.14l-31.855 31.86c-7.812 7.808-7.812 20.472 0 28.28a19.935 19.935 0 0014.14 5.86 19.937 19.937 0 0014.145-5.86l44.785-44.785c19.497-19.496 19.497-51.214 0-70.71zm0 0"></path>
  </symbol>
  <symbol xmlns="http://www.w3.org/2000/svg" viewBox="0 0 24 24" id="instagram">
    <linearGradient id="a" gradientTransform="matrix(0 -1.982 -1.844 0 -132.522 -51.077)" gradientUnits="userSpaceOnUse" x1="-37.106" x2="-26.555" y1="-72.705" y2="-84.047">
      <stop offset="0" stop-color="#fd5"></stop>
      <stop offset=".5" stop-color="#ff543e"></stop>
      <stop offset="1" stop-color="#c837ab"></stop>
    </linearGradient>
    <path d="M1.5 1.633C-.386 3.592 0 5.673 0 11.995c0 5.25-.916 10.513 3.878 11.752 1.497.385 14.761.385 16.256-.002 1.996-.515 3.62-2.134 3.842-4.957.031-.394.031-13.185-.001-13.587-.236-3.007-2.087-4.74-4.526-5.091C18.89.029 18.778.005 15.91 0 5.737.005 3.507-.448 1.5 1.633z" fill="url(#a)"></path>
    <path d="M11.998 3.139c-3.631 0-7.079-.323-8.396 3.057-.544 1.396-.465 3.209-.465 5.805 0 2.278-.073 4.419.465 5.804 1.314 3.382 4.79 3.058 8.394 3.058 3.477 0 7.062.362 8.395-3.058.545-1.41.465-3.196.465-5.804 0-3.462.191-5.697-1.488-7.375-1.7-1.7-3.999-1.487-7.374-1.487zm-.794 1.597c7.574-.012 8.538-.854 8.006 10.843-.189 4.137-3.339 3.683-7.211 3.683-7.06 0-7.263-.202-7.263-7.265 0-7.145.56-7.257 6.468-7.263zm5.524 1.471a1.063 1.063 0 100 2.126 1.063 1.063 0 000-2.126zm-4.73 1.243a4.55 4.55 0 10.001 9.101 4.55 4.55 0 00-.001-9.101zm0 1.597c3.905 0 3.91 5.908 0 5.908-3.904 0-3.91-5.908 0-5.908z" fill="#fff"></path>
  </symbol>
  <symbol xmlns="http://www.w3.org/2000/svg" viewBox="0 0 512 512" id="github">
    <path d="M255.968 5.329C114.624 5.329 0 120.401 0 262.353c0 113.536 73.344 209.856 175.104 243.872 12.8 2.368 17.472-5.568 17.472-12.384 0-6.112-.224-22.272-.352-43.712-71.2 15.52-86.24-34.464-86.24-34.464-11.616-29.696-28.416-37.6-28.416-37.6-23.264-15.936 1.728-15.616 1.728-15.616 25.696 1.824 39.2 26.496 39.2 26.496 22.848 39.264 59.936 27.936 74.528 21.344 2.304-16.608 8.928-27.936 16.256-34.368-56.832-6.496-116.608-28.544-116.608-127.008 0-28.064 9.984-51.008 26.368-68.992-2.656-6.496-11.424-32.64 2.496-68 0 0 21.504-6.912 70.4 26.336 20.416-5.696 42.304-8.544 64.096-8.64 21.728.128 43.648 2.944 64.096 8.672 48.864-33.248 70.336-26.336 70.336-26.336 13.952 35.392 5.184 61.504 2.56 68 16.416 17.984 26.304 40.928 26.304 68.992 0 98.72-59.84 120.448-116.864 126.816 9.184 7.936 17.376 23.616 17.376 47.584 0 34.368-.32 62.08-.32 70.496 0 6.88 4.608 14.88 17.6 12.352C438.72 472.145 512 375.857 512 262.353 512 120.401 397.376 5.329 255.968 5.329z" fill="#5c6bc0"></path>
  </symbol>
  <symbol xmlns="http://www.w3.org/2000/svg" viewBox="0 0 485.725 485.725" id="send">
    <path d="M459.835 196.758L73.531 9.826C48.085-2.507 17.46 8.123 5.126 33.569a51.198 51.198 0 00-1.449 41.384l60.348 150.818h421.7a50.787 50.787 0 00-25.89-29.013zm-395.81 63.146L3.677 410.756c-10.472 26.337 2.389 56.177 28.726 66.65a51.318 51.318 0 0018.736 3.631c7.754 0 15.408-1.75 22.391-5.12l386.304-187a50.79 50.79 0 0025.89-29.013H64.025z"></path>
  </symbol>

  <symbol xmlns="http://www.w3.org/2000/svg" viewBox="0 0 512 512" id="add">
    <path d="M256 0C114.836 0 0 114.836 0 256s114.836 256 256 256 256-114.836 256-256S397.164 0 256 0zm112 277.332h-90.668V368c0 11.777-9.555 21.332-21.332 21.332s-21.332-9.555-21.332-21.332v-90.668H144c-11.777 0-21.332-9.555-21.332-21.332s9.555-21.332 21.332-21.332h90.668V144c0-11.777 9.555-21.332 21.332-21.332s21.332 9.555 21.332 21.332v90.668H368c11.777 0 21.332 9.555 21.332 21.332s-9.555 21.332-21.332 21.332zm0 0"></path>
  </symbol>

  <symbol xmlns="http://www.w3.org/2000/svg" viewBox="0 0 512 512" id="add-friend">
    <path d="M226 232c-63.963 0-116-52.037-116-116S162.037 0 226 0s116 52.037 116 116-52.037 116-116 116zm45 85c0-25.68 7.21-49.707 19.708-70.167C271.193 256.526 249.228 262 226 262c-30.128 0-58.152-9.174-81.429-24.874-28.782 11.157-55.186 28.291-77.669 50.774C24.404 330.397 1 386.899 1 446.999V497c0 8.284 6.716 15 15 15h420c8.284 0 15-6.716 15-15v-50.001c0-.901-.025-1.805-.036-2.708C436.892 449.277 421.759 452 406 452c-74.439 0-135-60.561-135-135z"></path>
    <path d="M406 212c-57.897 0-105 47.103-105 105s47.103 105 105 105 105-47.103 105-105-47.103-105-105-105zm30 120h-15v15c0 8.284-6.716 15-15 15s-15-6.716-15-15v-15h-15c-8.284 0-15-6.716-15-15s6.716-15 15-15h15v-15c0-8.284 6.716-15 15-15s15 6.716 15 15v15h15c8.284 0 15 6.716 15 15s-6.716 15-15 15z"></path>
  </symbol>


  <symbol xmlns="http://www.w3.org/2000/svg" viewBox="0 0 329.269 329" id="close">
    <path d="M194.8 164.77L323.013 36.555c8.343-8.34 8.343-21.825 0-30.164-8.34-8.34-21.825-8.34-30.164 0L164.633 134.605 36.422 6.391c-8.344-8.34-21.824-8.34-30.164 0-8.344 8.34-8.344 21.824 0 30.164l128.21 128.215L6.259 292.984c-8.344 8.34-8.344 21.825 0 30.164a21.266 21.266 0 0015.082 6.25c5.46 0 10.922-2.09 15.082-6.25l128.21-128.214 128.216 128.214a21.273 21.273 0 0015.082 6.25c5.46 0 10.922-2.09 15.082-6.25 8.343-8.34 8.343-21.824 0-30.164zm0 0"></path>
  </symbol>
</svg>